<?xml version="1.0" encoding="utf-8"?>
<!-- Generator: Adobe Illustrator 24.0.1, SVG Export Plug-In . SVG Version: 6.00 Build 0)  -->
<svg version="1.1" id="图层_1" xmlns="http://www.w3.org/2000/svg" xmlns:xlink="http://www.w3.org/1999/xlink" x="0px" y="0px"
	 viewBox="0 0 200 200" style="enable-background:new 0 0 200 200;" xml:space="preserve">
<style type="text/css">
	.st0{fill:url(#SVGID_1_);}
</style>
<linearGradient id="SVGID_1_" gradientUnits="userSpaceOnUse" x1="99.9097" y1="24.8438" x2="99.9097" y2="175.1758">
	<stop  offset="0.1938" style="stop-color:#F35003"/>
	<stop  offset="0.8706" style="stop-color:#00F3FD"/>
</linearGradient>
<path class="st0" d="M185,57.5c1.8-2.8,0.9-6.4-1.8-8.3c-0.9,0-1.8-0.9-2.8-0.9h-1.8l-35.9,13.8c-1.8,0.9-4.6,2.8-6.4,3.7
	c-5.5,3.7-10.1,9.2-12.9,14.7c-4.6,10.1-9.2,20.3-13.8,29.5c-1.8,2.8-3.7,5.5-5.5,7.4c-5.5,4.6-12,7.4-19.3,6.4
	c-2.8,0-5.5-0.9-8.3-1.8s-4.6-1.8-6.4-2.8c-4.6-1.8-8.3-3.7-12.9-3.7c-12-0.9-22.1,2.8-30.4,11c-2.8,2.8-5.5,6.4-7.4,10.1
	c-1.8,4.6-4.6,10.1-6.4,14.7c-0.9,0.9-0.9,2.8,0,4.6c0.9,1.8,2.8,3.7,4.6,3.7c1.8,0.9,3.7,0,5.5-0.9c0.9-0.9,1.8-1.8,1.8-2.8
	c1.8-4.6,3.7-10.1,6.4-14.7c6.4-12,20.2-17.5,32.2-12c2.8,0.9,4.6,1.8,6.4,2.8c3.7,0.9,8.3,2.8,12,2.8c11,0.9,22.1-2.8,30.4-10.1
	c2.8-2.8,5.5-6.4,7.4-10.1c4.6-10.1,9.2-20.2,13.8-29.4c2.8-4.6,6.4-8.3,12-11c12-4.6,24.8-8.3,36.8-13.8L185,57.5L185,57.5z
	 M52.5,96.7c18.2,0,33.1-14.2,34.5-32.1H49.8V27.5C31.9,28.9,17.8,43.8,17.8,62C17.8,81.2,33.3,96.7,52.5,96.7z M55.2,24.8v34.5
	h34.5C88.6,40.9,73.6,25.9,55.2,24.8z M185.5,67.3c-7.8,3.6-15.9,6.4-23.7,9.1v98.7h25.7V66l-0.8,0.8L185.5,67.3z M161.8,25.3v21.1
	l15.3-5.9h3.3c1.7,0,3.2,0.5,4.1,0.9h1l2,1.3c0,0,0,0,0.1,0.1V25.3H161.8z M126.9,117.6l-0.2,0.4c-2.1,4.2-5.3,8.7-8.8,12.1
	l-0.3,0.3c-0.6,0.5-1.1,1-1.7,1.4v43.3h25.7V92.4h-3C134.6,100.4,130.7,109.1,126.9,117.6L126.9,117.6z M69.8,110.6
	c0.4,0.2,0.8,0.3,1.2,0.5l0,0c0.6,0.3,1.2,0.5,1.9,0.8l0.3,0.1l0.3,0.1c1.7,0.9,3.2,1.6,5.4,2.3c2.2,0.7,4.3,1.4,5.8,1.4h0.5
	l0.5,0.1c3.4,0.4,6.6-0.3,9.9-2.2v-8.5H69.8V110.6z M81.6,142.5c-3.6-0.1-7.2-1.2-10.4-2.1c-0.5-0.1-0.9-0.3-1.3-0.4v35.2h25.7
	v-33.6C91,142.5,86.3,142.9,81.6,142.5z M38.3,144.9l-0.2,0.3c-1.8,3-3.2,6.8-4.6,10.4l0,0c-0.3,0.8-0.6,1.6-0.9,2.3
	c-0.7,3-2.7,5-3.9,6.2l-0.9,0.9l-1.1,0.6c-0.8,0.4-1.7,0.8-2.8,1.3v8.3h25.7v-39.7C45,136.7,40.9,140,38.3,144.9L38.3,144.9z"/>
</svg>
