<?xml version="1.0" standalone="no"?><!DOCTYPE svg PUBLIC "-//W3C//DTD SVG 1.1//EN" "http://www.w3.org/Graphics/SVG/1.1/DTD/svg11.dtd"><svg t="1674957842296" class="icon" viewBox="0 0 1024 1024" version="1.1" xmlns="http://www.w3.org/2000/svg" p-id="8001" xmlns:xlink="http://www.w3.org/1999/xlink" width="200" height="200"><path d="M123.875 847.615625h778.115625v83.971875H123.875v-83.971875z m720.61875-223.921875H655.709375c-17.025-19.51875-29.11875-41.64375-31.096875-66.440625-8.109375-101.45625 104.465625-150.0375 104.465625-274.4625 0-105.684375-82.85625-190.9125-216.140625-190.9125-133.29375 0-216.15 85.228125-216.15 190.9125 0 124.434375 112.575 173.015625 104.465625 274.4625-1.978125 24.80625-14.071875 46.921875-31.096875 66.440625H181.38125c-31.753125 0-57.496875 25.003125-57.496875 55.846875v112.096875H902V679.540625c0-30.84375-25.74375-55.846875-57.50625-55.846875z m0 0" p-id="8002"></path></svg>