<?xml version="1.0" encoding="iso-8859-1"?>
<!-- Generator: Adobe Illustrator 19.0.0, SVG Export Plug-In . SVG Version: 6.00 Build 0)  -->
<svg version="1.1" id="Layer_1" xmlns="http://www.w3.org/2000/svg" xmlns:xlink="http://www.w3.org/1999/xlink" x="0px" y="0px"
	 viewBox="0 0 512.001 512.001" style="enable-background:new 0 0 512.001 512.001;" xml:space="preserve">
<g>
	<g>
		<path d="M509.013,99.064L412.937,2.987c-3.984-3.983-10.44-3.983-14.425,0L2.987,398.513c-3.983,3.983-3.983,10.441,0,14.424
			l96.076,96.077c1.991,1.992,4.602,2.987,7.212,2.987s5.221-0.995,7.212-2.987l395.526-395.526
			c1.912-1.912,2.987-4.506,2.987-7.212C512.001,103.57,510.926,100.976,509.013,99.064z M106.275,487.377l-81.653-81.653
			l41.98-41.98l15.228,15.229c1.992,1.992,4.602,2.987,7.212,2.987c2.61,0,5.221-0.996,7.212-2.987
			c3.983-3.983,3.984-10.441,0-14.424L81.025,349.32l41.979-41.979l28.554,28.554c1.992,1.992,4.602,2.987,7.212,2.987
			c2.61,0,5.221-0.995,7.212-2.987c3.983-3.983,3.983-10.441,0-14.425l-28.554-28.554l41.979-41.979l15.229,15.23
			c1.992,1.992,4.602,2.987,7.212,2.987s5.221-0.995,7.212-2.987c3.983-3.983,3.983-10.441,0-14.425l-15.229-15.229l41.979-41.979
			l37.671,37.671c1.992,1.992,4.602,2.987,7.212,2.987c2.61,0,5.22-0.995,7.212-2.987c3.983-3.983,3.983-10.441,0-14.425
			l-37.671-37.671l41.98-41.98l15.228,15.229c1.992,1.992,4.602,2.987,7.212,2.987s5.22-0.996,7.212-2.987
			c3.983-3.983,3.983-10.441,0-14.424l-15.229-15.229l41.98-41.98l37.67,37.671c1.992,1.992,4.602,2.987,7.212,2.987
			s5.22-0.996,7.212-2.987c3.983-3.983,3.983-10.441,0-14.424l-37.671-37.671l42.686-42.68l81.653,81.653L106.275,487.377z"/>
	</g>
</g>
<g>
	<g>
		<path d="M191.93,347.419l-3.505-3.506c-3.983-3.983-10.441-3.983-14.425,0c-3.983,3.983-3.983,10.441,0,14.425l3.507,3.506
			c1.992,1.992,4.602,2.987,7.212,2.987s5.221-0.995,7.212-2.987C195.913,357.861,195.913,351.403,191.93,347.419z"/>
	</g>
</g>
<g>
</g>
<g>
</g>
<g>
</g>
<g>
</g>
<g>
</g>
<g>
</g>
<g>
</g>
<g>
</g>
<g>
</g>
<g>
</g>
<g>
</g>
<g>
</g>
<g>
</g>
<g>
</g>
<g>
</g>
</svg>
